<?xml version="1.0" encoding="UTF-8" standalone="no"?>
<!-- Created with Inkscape (http://www.inkscape.org/) -->

<svg
   xmlns:dc="http://purl.org/dc/elements/1.1/"
   xmlns:cc="http://creativecommons.org/ns#"
   xmlns:rdf="http://www.w3.org/1999/02/22-rdf-syntax-ns#"
   xmlns:svg="http://www.w3.org/2000/svg"
   xmlns="http://www.w3.org/2000/svg"
   xmlns:sodipodi="http://sodipodi.sourceforge.net/DTD/sodipodi-0.dtd"
   xmlns:inkscape="http://www.inkscape.org/namespaces/inkscape"
   id="svg3738"
   version="1.1"
   inkscape:version="0.92.4 5da689c313, 2019-01-14"
   width="281.25"
   height="281.25"
   viewBox="0 0 281.25 281.25"
   sodipodi:docname="download.svg.2019_09_05_01_09_01.0.svg">
  <metadata
     id="metadata3744">
    <rdf:RDF>
      <cc:Work
         rdf:about="">
        <dc:format>image/svg+xml</dc:format>
        <dc:type
           rdf:resource="http://purl.org/dc/dcmitype/StillImage" />
        <dc:title />
      </cc:Work>
    </rdf:RDF>
  </metadata>
  <defs
     id="defs3742" />
  <sodipodi:namedview
     pagecolor="#ffffff"
     bordercolor="#666666"
     borderopacity="1"
     objecttolerance="10"
     gridtolerance="10"
     guidetolerance="10"
     inkscape:pageopacity="0"
     inkscape:pageshadow="2"
     inkscape:window-width="1906"
     inkscape:window-height="1030"
     id="namedview3740"
     showgrid="false"
     inkscape:zoom="0.83911111"
     inkscape:cx="-62.566208"
     inkscape:cy="140.625"
     inkscape:window-x="5"
     inkscape:window-y="23"
     inkscape:window-maximized="0"
     inkscape:current-layer="svg3738" />
  <path
     inkscape:connector-curvature="0"
     id="path3764"
     d="m 129.6875,177.39987 c -2.93209,-1.70778 -2.77115,-6.48421 0.3125,-9.27487 2.1773,-1.97042 2.5,-2.00495 2.5,-0.2675 0,1.09722 -0.5625,2.3426 -1.25,2.7675 -1.94476,1.20193 -1.47221,4.02226 0.8214,4.9024 1.22966,0.47186 4.06234,-0.52266 6.97081,-2.4474 4.81636,-3.18733 4.91084,-3.19853 5.57439,-0.66114 0.51129,1.9552 1.68269,2.58114 4.83041,2.58114 4.76785,0 6.45684,-1.77978 4.23248,-4.45996 -1.87225,-2.25593 -1.01447,-3.37793 1.7666,-2.31073 2.39375,0.91856 2.72726,5.59734 0.55391,7.77069 -1.89,1.89 -11.28471,1.96529 -13.14466,0.10538 -1.02622,-1.02622 -2.15643,-0.8611 -4.27814,0.625 -3.29519,2.30805 -5.75808,2.49353 -8.8897,0.66953 z M 43.75,173.22296 c 0,-0.47677 1.303532,-3.2251 2.896739,-6.10741 4.232296,-7.65674 4.828266,-9.62342 2.664601,-8.79315 -2.893965,1.11051 -2.115396,-1.80502 2.12964,-7.97498 l 3.94098,-5.72802 -5.19098,0.83007 C 47.108213,145.94243 45,145.78843 45,145.07027 c 0,-0.66508 2.25,-4.42123 5,-8.347 2.75,-3.92575 5,-7.88822 5,-8.80549 0,-0.91728 0.600405,-1.66778 1.334235,-1.66778 2.070545,0 0.09846,4.94224 -4.620257,11.57881 l -4.23326,5.95381 5.009641,-0.80107 c 2.755302,-0.44059 5.009641,-0.40746 5.009641,0.0736 0,0.48107 -1.520555,3.4693 -3.379011,6.64052 -1.858455,3.17122 -2.741074,5.37158 -1.961373,4.88969 3.027828,-1.8713 2.631144,1.64548 -0.910283,8.07005 -4.848408,8.7956 -4.838422,10.0942 0.06448,8.38504 3.458266,-1.20556 6.2746,-0.71219 4.733237,0.82917 -1.040769,1.04077 -12.29705,2.27957 -12.29705,1.35334 z m 187.5,-4.56977 c 0,-0.63425 3.375,-1.15319 7.5,-1.15319 4.125,0 7.47395,-0.42188 7.44212,-0.9375 -0.0319,-0.51563 -2.2558,-2.625 -4.94212,-4.6875 -6.14826,-4.72049 -6.35643,-6.875 -0.66423,-6.875 5.18844,0 4.94053,-2.1617 -0.62497,-5.44931 -5.1662,-3.05175 -4.85144,-5.80069 0.6642,-5.80069 2.40625,0 4.375,-0.3537 4.375,-0.786 0,-0.4323 -1.98786,-2.98633 -4.41749,-5.67563 -2.42961,-2.68928 -4.10188,-5.40026 -3.71616,-6.02437 0.95585,-1.5466 10.63365,9.11947 10.63365,11.71954 0,1.3127 -1.39041,2.35705 -3.77234,2.83342 l -3.77233,0.75448 4.61182,3.9866 c 5.23991,4.52955 4.82941,6.9153 -1.20342,6.994 l -3.98873,0.052 4.6032,4.07007 c 7.04429,6.22843 6.65345,7.0411 -3.6657,7.62204 -5.0698,0.28541 -9.0625,0.002 -9.0625,-0.64299 z m -53.41289,-39.25643 c -7.97841,-3.46843 -11.60732,-15.36966 -7.04269,-23.09697 4.42239,-7.486505 14.88044,-9.796355 22.7183,-5.01775 4.24112,2.58574 7.74092,8.91779 7.7326,13.99031 -0.0112,6.81078 -9.40708,16.02089 -16.24532,15.92405 -1.71875,-0.0244 -4.94205,-0.83418 -7.16289,-1.79964 z M 182.5,111.80123 c 0,-1.07182 -0.5625,-1.60113 -1.25,-1.17623 -0.6875,0.4249 -1.25,1.30185 -1.25,1.94877 0,0.64693 0.5625,1.17623 1.25,1.17623 0.6875,0 1.25,-0.87695 1.25,-1.94877 z m -1.875,-4.90911 c 0,-2.86009 -4.19642,-4.20361 -5.67206,-1.81597 -1.54605,2.50155 0.12475,5.09036 3.01866,4.67744 1.6869,-0.24069 2.6534,-1.28298 2.6534,-2.86147 z M 88.622354,127.16259 C 74.519788,117.74146 80.190591,97.5 96.93256,97.5 c 17.12561,0 21.85388,24.16179 6.02271,30.77647 -5.822563,2.43283 -9.445246,2.15129 -14.332916,-1.11388 z m 7.757395,-16.28284 c -1.604358,-1.60436 -3.231318,-0.36438 -2.043545,1.55748 0.460097,0.74445 1.409186,0.99964 2.109085,0.56708 0.853754,-0.52765 0.832185,-1.22684 -0.06554,-2.12456 z m -2.854578,-4.33561 c 0.512694,-3.59414 -3.021602,-5.08342 -5.70222,-2.40281 -1.659754,1.65976 -1.71366,2.30797 -0.330524,3.97455 2.249439,2.7104 5.544362,1.85197 6.032744,-1.57174 z M 214.2225,84.753252 c -0.50878,-0.823211 -2.41691,-9.111328 -4.24033,-18.418038 l -3.31527,-16.92129 -4.60391,6.408303 C 193.67549,67.497009 172.5,80.951893 172.5,74.606515 c 0,-0.903916 2.00175,-2.598055 4.44834,-3.764751 9.01422,-4.298579 18.23462,-12.289699 23.09771,-20.018264 7.29885,-11.599541 8.12261,-12.580333 9.73116,-11.586194 0.81003,0.50063 1.49729,3.548914 1.52723,6.773965 0.0299,3.225051 0.53836,8.113729 1.12984,10.863729 0.59146,2.75 2.19966,10.0625 3.57376,16.25 1.37411,6.1875 2.23874,11.671875 1.9214,12.1875 -0.8634,1.402878 -2.66198,1.131534 -3.70694,-0.559248 z M 60.57254,83.665118 c -3.198884,-5.175903 -0.889709,-40.6422 2.736779,-42.033815 2.15746,-0.827894 8.215267,3.126055 20.360081,13.289088 5.11192,4.27776 12.565045,9.428763 16.5625,11.446672 6.57412,3.318607 8.91014,6.220558 6.304,7.831242 C 104.90077,75.20887 91.176055,66.757253 81.921494,59.040865 70.942424,49.886595 66.425503,46.907526 65.27349,48.060922 64.77932,48.555685 64.375,57.069491 64.375,66.980491 c 0,13.106567 -0.405925,18.019934 -1.488729,18.019755 -0.818801,-1.35e-4 -1.85998,-0.600943 -2.313731,-1.335128 z M 157.5278,63.39352 c -0.0234,-1.87314 -0.44645,-2.007424 -2.63486,-0.836224 -3.35174,1.793799 -4.60543,0.520944 -2.61929,-2.659357 1.51695,-2.429025 1.43095,-2.42559 -3.60595,0.144049 -2.83798,1.447828 -5.48094,2.311445 -5.87323,1.919148 -0.3923,-0.392297 -0.121,-2.643115 0.60293,-5.001816 1.27907,-4.167613 1.2343,-4.257416 -1.58751,-3.184562 -5.412,2.057635 -15.37879,7.420946 -16.1702,8.701472 -0.43298,0.700574 -1.66666,1.27377 -2.74152,1.27377 -4.93147,0 1.9994,-4.296278 21.20903,-13.146952 5.29696,-2.440537 7.25714,-1.739435 4.40848,1.576788 -2.54468,2.962317 -3.73086,6.570164 -2.16013,6.570164 0.7024,0 3.30996,-1.381372 5.79457,-3.069717 5.4197,-3.682778 7.5493,-2.940472 4.57724,1.595466 l -2.15847,3.29425 3.29657,-2.159999 c 1.81313,-1.188 3.59763,-2.16 3.96556,-2.16 1.45042,0 0.4879,3.285422 -1.83102,6.25 -2.022,2.584984 -2.44921,2.739389 -2.4722,0.89352 z"
     style="fill:#fcfcfc" />
  <path
     inkscape:connector-curvature="0"
     id="path3762"
     d="m 243.4375,169.17215 c 0.85937,-0.34676 2.26562,-0.34676 3.125,0 0.85937,0.34676 0.15625,0.63049 -1.5625,0.63049 -1.71875,0 -2.42188,-0.28373 -1.5625,-0.63049 z m -4.84695,-8.85965 c -1.55484,-1.98258 -1.51062,-2.02679 0.47195,-0.47195 1.20312,0.94356 2.1875,1.92794 2.1875,2.1875 0,1.0288 -1.02649,0.36664 -2.65945,-1.71555 z M 193.75,128.27805 c 0,-0.25956 0.98437,-1.24394 2.1875,-2.1875 1.98257,-1.55483 2.02679,-1.51062 0.47195,0.47195 -1.63296,2.08219 -2.65945,2.74435 -2.65945,1.71555 z M 190,62.028056 c 0,-0.25957 0.98437,-1.243945 2.1875,-2.1875 1.98257,-1.554838 2.02679,-1.510626 0.47195,0.471944 C 191.02649,62.394685 190,63.056849 190,62.028056 Z M 60.098684,48.020834 c 0.05998,-1.456179 0.356176,-1.752375 0.755208,-0.755209 0.361089,0.902344 0.31668,1.980469 -0.09869,2.395834 -0.415365,0.415363 -0.710801,-0.322918 -0.656525,-1.640625 z"
     style="fill:#d1d1d1" />
  <path
     inkscape:connector-curvature="0"
     id="path3760"
     d="m 239.76562,169.14611 c 0.90234,-0.36109 1.98047,-0.31669 2.39584,0.0986 0.41537,0.41536 -0.32292,0.7108 -1.64062,0.65652 -1.45619,-0.06 -1.75238,-0.35617 -0.75522,-0.7552 z m 3.75,-2.5 c 0.90234,-0.36109 1.98047,-0.31669 2.39584,0.0986 0.41537,0.41536 -0.32292,0.7108 -1.64062,0.65652 -1.45619,-0.06 -1.75238,-0.35617 -0.75522,-0.7552 z m -60,-68.750002 c 0.90234,-0.361089 1.98047,-0.31668 2.39584,0.09869 0.41537,0.415365 -0.32292,0.710801 -1.64062,0.656525 -1.45619,-0.05997 -1.75238,-0.356176 -0.75522,-0.755209 z"
     style="fill:#b2b2b2" />
  <path
     inkscape:connector-curvature="0"
     id="path3756"
     d="m 47.265625,174.14611 c 0.902344,-0.36109 1.980469,-0.31669 2.395834,0.0986 0.415363,0.41536 -0.322918,0.7108 -1.640625,0.65652 -1.456179,-0.06 -1.752375,-0.35617 -0.755209,-0.7552 z"
     style="fill:#6f6f6f" />
  <path
     inkscape:connector-curvature="0"
     id="path3754"
     d="m 241.09055,159.0625 c -1.55484,-1.98258 -1.51062,-2.02679 0.47195,-0.47195 2.08219,1.63296 2.74435,2.65945 1.71555,2.65945 -0.25956,0 -1.24394,-0.98438 -2.1875,-2.1875 z"
     style="fill:#565656" />
  <path
     inkscape:connector-curvature="0"
     id="path3752"
     d="M 101.25,246.74265 C 75.644751,243.3282 54.067051,235.23552 41.682791,224.40207 22.820463,207.90176 19.09555,184.97299 30.001884,152.5 35.302201,136.71861 58.799792,91.025934 64.599166,85.223214 65.507125,84.314732 66.25,82.971155 66.25,82.237487 66.25,80.691777 79.82306,60 80.836989,60 c 0.373037,0 2.727946,1.603511 5.233131,3.563359 2.505184,1.959848 8.040153,5.475473 12.299929,7.8125 6.054271,3.321535 8.075661,3.919606 9.259521,2.739618 2.17663,-2.169512 -0.35937,-4.801509 -8.80478,-9.138064 C 95.002406,63.01469 90.287009,60.006689 88.346129,58.292964 83.815685,54.29275 84.404549,53.17169 97.514211,40.83906 109.10929,29.931245 121.33877,23.207549 133.41721,21.099801 c 18.42333,-3.214957 39.69871,6.937215 57.32592,27.354731 l 5.81411,6.734461 -3.99552,4.122322 c -2.19752,2.267276 -7.61041,6.236394 -12.02861,8.820259 -7.82261,4.574829 -9.87477,7.490176 -6.25125,8.880651 2.15343,0.826349 14.60161,-6.848643 20.88328,-12.875696 l 4.54015,-4.356116 3.09535,4.172293 c 7.00605,9.443609 9.69936,14.306798 9.69936,17.513691 0,3.173722 1.70166,5.345506 4.22284,5.389462 0.6038,0.0105 3.86882,4.800391 7.25558,10.644141 9.39019,16.20243 19.94015,37.5 18.576,37.5 -0.66906,0 -1.81854,-1.125 -2.55442,-2.5 -0.73588,-1.375 -1.88066,-2.5 -2.54398,-2.5 -2.49473,0 -1.05603,3.40496 3.16898,7.5 2.40625,2.33223 4.375,4.69257 4.375,5.24521 0,0.55264 -1.875,1.00479 -4.16666,1.00479 -6.36764,0 -6.49943,1.41253 -0.60713,6.50732 l 5.39879,4.66808 -4.6875,0.0373 c -5.96778,0.0475 -6.10246,2.28596 -0.43688,7.26042 l 4.25064,3.7321 -7.37564,0.83447 C 226.69086,167.99852 228.32702,170 240,170 c 11.61591,0 12.16871,-0.79863 5.37131,-7.7598 L 240.74262,157.5 h 4.00369 c 3.15479,0 4.00369,-0.52396 4.00369,-2.47119 0,-1.35915 -1.40143,-3.38942 -3.11426,-4.51172 -3.40557,-2.23142 -3.10129,-4.26709 0.63781,-4.26709 4.67001,0 10.4794,24.94141 9.78829,42.02405 -0.56896,14.06342 -5.01245,24.16732 -14.95775,34.01189 -12.73809,12.60906 -37.82194,21.94065 -67.61733,25.1547 -16.70382,1.80186 -56.36398,1.41864 -72.23676,-0.69799 z m 38.19236,-69.74276 c 2.14176,-1.50014 2.84048,-1.50014 4.89205,0 2.82935,2.06889 7.37394,2.26175 10.74776,0.45613 3.26544,-1.74761 3.26135,-8.16662 -0.006,-9.91542 -2.94826,-1.57786 -4.5311,0.318 -2.0114,2.40916 2.64323,2.19368 0.92048,5.05024 -3.04573,5.05024 -2.19835,0 -4.15478,-1.0275 -5.35515,-2.8125 l -1.89135,-2.8125 -3.02918,2.8125 c -5.12085,4.75455 -11.25112,3.4253 -7.88632,-1.71004 2.15021,-3.28164 0.36762,-5.34221 -2.53648,-2.93202 -2.20202,1.82752 -2.39355,7.63126 -0.32025,9.70456 2.02386,2.02386 7.37893,1.8956 10.44236,-0.25011 z m -87.343608,-3.501 c 5.488937,-1.98483 5.324248,-3.99718 -0.24167,-2.953 l -4.392918,0.82411 4.063766,-8.24089 c 2.991151,-6.06574 3.662242,-8.48904 2.542534,-9.18105 -1.11597,-0.68971 -0.679268,-2.17924 1.63925,-5.59125 3.702193,-5.44826 3.017398,-7.57497 -2.078714,-6.45567 -3.536043,0.77665 -5.062603,-0.86882 -2.35723,-2.54083 1.890124,-1.16816 7.487397,-12.68247 6.597651,-13.57222 -0.919131,-0.91913 -4.121421,1.53947 -4.121421,3.16427 0,0.63045 -1.96875,4.06969 -4.375,7.64276 -5.693819,8.45484 -5.688559,10.19514 0.02801,9.26748 4.706752,-0.7638 4.713533,-0.66728 0.392032,5.58036 -2.511511,3.63091 -3.026671,7.30704 -1.023988,7.30704 0.699082,0 -0.144668,2.7938 -1.875,6.20845 -5.054768,9.9751 -3.919313,11.839 5.202696,8.54044 z M 196.39706,126.39706 c 4.31025,-4.31025 4.85242,-5.53336 4.84826,-10.9375 -0.002,-3.74597 -0.90702,-7.56432 -2.35242,-9.9346 -2.65279,-4.35027 -9.39529,-8.027256 -14.70681,-8.020288 -7.66338,0.01 -16.67136,9.018038 -16.68141,16.681418 -0.008,5.31153 3.67001,12.05402 8.02027,14.70681 2.3703,1.4454 6.18864,2.34955 9.93461,2.35242 5.40414,0.004 6.62725,-0.53801 10.9375,-4.84826 z m -90.52025,1.15354 c 10.79237,-6.58048 10.16636,-21.89068 -1.17789,-28.807353 -5.126546,-3.125696 -9.753133,-3.154102 -15.746178,-0.09667 -10.329217,5.269573 -12.118356,19.321693 -3.469261,27.247993 3.75559,3.44175 5.442643,4.10468 10.435663,4.10076 3.69998,-0.002 7.471606,-0.92888 9.957666,-2.44473 z m 22.47763,-66.261043 c 3.31131,-2.040743 8.07431,-4.556298 10.58443,-5.590121 l 4.56388,-1.87968 -0.66596,4.965123 c -0.71303,5.316059 0.12087,5.957647 3.96462,3.050367 3.14165,-2.376228 4.44859,-2.321719 4.44859,0.185543 0,1.405377 0.76135,1.821692 2.5,1.367025 1.375,-0.35957 2.5,-0.143927 2.5,0.479211 0,2.504743 3.25316,0.891931 5.23832,-2.596996 2.37123,-4.167409 1.13484,-5.842884 -2.76964,-3.753261 -2.37713,1.272196 -2.45768,1.181702 -1.01067,-1.135347 2.47203,-3.95833 0.22398,-4.584565 -5.30416,-1.477575 -5.89593,3.313692 -7.34671,2.727878 -4.39623,-1.775142 2.98204,-4.551155 1.44313,-5.904274 -3.85811,-3.392325 -15.04711,7.129959 -22.32351,11.36074 -22.67867,13.186262 -0.54052,2.778305 -0.1077,2.67562 6.8836,-1.633084 z"
     style="fill:#323232" />
  <path
     inkscape:connector-curvature="0"
     id="path3750"
     d="m 176.3699,108.82411 c -1.88909,-1.16753 -1.01903,-5.07411 1.1301,-5.07411 1.8302,0 3.0824,3.6676 1.71802,5.03197 -0.62687,0.62688 -1.87217,0.6453 -2.84812,0.0421 z M 88.125,107.5 c -1.0463,-1.69295 0.365534,-3.75 2.573771,-3.75 0.990676,0 1.801229,1.125 1.801229,2.5 0,2.58788 -3.015637,3.44949 -4.375,1.25 z"
     style="fill:#050505" />
</svg>
